<svg xmlns="http://www.w3.org/2000/svg" width="420" height="420" viewBox="0 0 420 420">
<rect width="420" height="420" fill="#070707"/>
<polygon points="96.60675,209.9919 134.4135,209.9838 96.60000000000001,247.8" fill="rgba(231,229,224,0.45)" stroke="rgba(140,138,133,0.2)" stroke-width="0.5"/>
<polygon points="134.4135,209.9838 134.40675,247.7919 96.60000000000001,247.8" fill="rgba(231,229,224,0.45)" stroke="rgba(140,138,133,0.2)" stroke-width="0.5"/>
<polygon points="134.40675,172.1919 172.2135,172.18380000000002 134.4135,209.9838" fill="rgba(231,229,224,0.45)" stroke="rgba(140,138,133,0.2)" stroke-width="0.5"/>
<polygon points="172.2135,172.18380000000002 172.22025,209.9757 134.4135,209.9838" fill="rgba(231,229,224,0.45)" stroke="rgba(140,138,133,0.2)" stroke-width="0.5"/>
<polygon points="134.4135,209.9838 172.22025,209.9757 134.40675,247.7919" fill="rgba(231,229,224,0.45)" stroke="rgba(140,138,133,0.2)" stroke-width="0.5"/>
<polygon points="172.22025,209.9757 172.2135,247.78379999999999 134.40675,247.7919" fill="rgba(231,229,224,0.45)" stroke="rgba(140,138,133,0.2)" stroke-width="0.5"/>
<polygon points="134.40675,247.7919 172.2135,247.78379999999999 134.4,285.6" fill="rgba(231,229,224,0.45)" stroke="rgba(140,138,133,0.2)" stroke-width="0.5"/>
<polygon points="172.2135,247.78379999999999 172.20675,285.5919 134.4,285.6" fill="rgba(231,229,224,0.45)" stroke="rgba(140,138,133,0.2)" stroke-width="0.5"/>
<polygon points="172.20675,134.39190000000002 210.0135,134.3838 172.2135,172.18380000000002" fill="rgba(231,229,224,0.45)" stroke="rgba(140,138,133,0.2)" stroke-width="0.5"/>
<polygon points="210.0135,134.3838 210.02025,172.1757 172.2135,172.18380000000002" fill="rgba(231,229,224,0.45)" stroke="rgba(140,138,133,0.2)" stroke-width="0.5"/>
<polygon points="172.2135,172.18380000000002 210.02025,172.1757 172.22025,209.9757" fill="rgba(231,229,224,0.45)" stroke="rgba(140,138,133,0.2)" stroke-width="0.5"/>
<polygon points="210.02025,172.1757 210.027,209.9676 172.22025,209.9757" fill="rgba(231,229,224,0.45)" stroke="rgba(140,138,133,0.2)" stroke-width="0.5"/>
<polygon points="172.22025,209.9757 210.027,209.9676 172.2135,247.78379999999999" fill="rgba(231,229,224,0.45)" stroke="rgba(140,138,133,0.2)" stroke-width="0.5"/>
<polygon points="210.027,209.9676 210.02025,247.7757 172.2135,247.78379999999999" fill="rgba(231,229,224,0.45)" stroke="rgba(140,138,133,0.2)" stroke-width="0.5"/>
<polygon points="172.2135,247.78379999999999 210.02025,247.7757 172.20675,285.5919" fill="rgba(231,229,224,0.45)" stroke="rgba(140,138,133,0.2)" stroke-width="0.5"/>
<polygon points="210.02025,247.7757 210.0135,285.5838 172.20675,285.5919" fill="rgba(231,229,224,0.45)" stroke="rgba(140,138,133,0.2)" stroke-width="0.5"/>
<polygon points="172.20675,285.5919 210.0135,285.5838 172.2,323.4" fill="rgba(231,229,224,0.45)" stroke="rgba(140,138,133,0.2)" stroke-width="0.5"/>
<polygon points="210.0135,285.5838 210.00675,323.39189999999996 172.2,323.4" fill="rgba(231,229,224,0.45)" stroke="rgba(140,138,133,0.2)" stroke-width="0.5"/>
<polygon points="210.00675,96.59190000000001 247.8,96.60000000000001 210.0135,134.3838" fill="rgba(231,229,224,0.45)" stroke="rgba(140,138,133,0.2)" stroke-width="0.5"/>
<polygon points="247.8,96.60000000000001 247.80675,134.39190000000002 210.0135,134.3838" fill="rgba(231,229,224,0.45)" stroke="rgba(140,138,133,0.2)" stroke-width="0.5"/>
<polygon points="210.0135,134.3838 247.80675,134.39190000000002 210.02025,172.1757" fill="rgba(231,229,224,0.45)" stroke="rgba(140,138,133,0.2)" stroke-width="0.5"/>
<polygon points="247.80675,134.39190000000002 247.8135,172.18380000000002 210.02025,172.1757" fill="rgba(231,229,224,0.45)" stroke="rgba(140,138,133,0.2)" stroke-width="0.5"/>
<polygon points="210.02025,172.1757 247.8135,172.18380000000002 210.027,209.9676" fill="rgba(231,229,224,0.45)" stroke="rgba(140,138,133,0.2)" stroke-width="0.5"/>
<polygon points="247.8135,172.18380000000002 247.82025,209.9757 210.027,209.9676" fill="rgba(231,229,224,0.45)" stroke="rgba(140,138,133,0.2)" stroke-width="0.5"/>
<polygon points="210.027,209.9676 247.82025,209.9757 210.02025,247.7757" fill="rgba(231,229,224,0.45)" stroke="rgba(140,138,133,0.2)" stroke-width="0.5"/>
<polygon points="247.82025,209.9757 247.8135,247.78379999999999 210.02025,247.7757" fill="rgba(231,229,224,0.45)" stroke="rgba(140,138,133,0.2)" stroke-width="0.5"/>
<polygon points="210.02025,247.7757 247.8135,247.78379999999999 210.0135,285.5838" fill="rgba(231,229,224,0.45)" stroke="rgba(140,138,133,0.2)" stroke-width="0.5"/>
<polygon points="247.8135,247.78379999999999 247.80675,285.5919 210.0135,285.5838" fill="rgba(231,229,224,0.45)" stroke="rgba(140,138,133,0.2)" stroke-width="0.5"/>
<polygon points="210.0135,285.5838 247.80675,285.5919 210.00675,323.39189999999996" fill="rgba(231,229,224,0.45)" stroke="rgba(140,138,133,0.2)" stroke-width="0.5"/>
<polygon points="247.80675,285.5919 247.8,323.4 210.00675,323.39189999999996" fill="rgba(231,229,224,0.45)" stroke="rgba(140,138,133,0.2)" stroke-width="0.5"/>
<polygon points="210.00675,323.39189999999996 247.8,323.4 210,361.2" fill="rgba(231,229,224,0.45)" stroke="rgba(140,138,133,0.2)" stroke-width="0.5"/>
<polygon points="247.80675,134.39190000000002 285.6,134.4 247.8135,172.18380000000002" fill="rgba(231,229,224,0.45)" stroke="rgba(140,138,133,0.2)" stroke-width="0.5"/>
<polygon points="285.6,134.4 285.60675,172.1919 247.8135,172.18380000000002" fill="rgba(231,229,224,0.45)" stroke="rgba(140,138,133,0.2)" stroke-width="0.5"/>
<polygon points="247.8135,172.18380000000002 285.60675,172.1919 247.82025,209.9757" fill="rgba(231,229,224,0.45)" stroke="rgba(140,138,133,0.2)" stroke-width="0.5"/>
<polygon points="285.60675,172.1919 285.6135,209.9838 247.82025,209.9757" fill="rgba(231,229,224,0.45)" stroke="rgba(140,138,133,0.2)" stroke-width="0.5"/>
<polygon points="247.82025,209.9757 285.6135,209.9838 247.8135,247.78379999999999" fill="rgba(231,229,224,0.45)" stroke="rgba(140,138,133,0.2)" stroke-width="0.5"/>
<polygon points="285.6135,209.9838 285.60675,247.7919 247.8135,247.78379999999999" fill="rgba(231,229,224,0.45)" stroke="rgba(140,138,133,0.2)" stroke-width="0.5"/>
<polygon points="247.8135,247.78379999999999 285.60675,247.7919 247.80675,285.5919" fill="rgba(231,229,224,0.45)" stroke="rgba(140,138,133,0.2)" stroke-width="0.5"/>
<polygon points="285.60675,247.7919 285.6,285.6 247.80675,285.5919" fill="rgba(231,229,224,0.45)" stroke="rgba(140,138,133,0.2)" stroke-width="0.5"/>
<polygon points="247.80675,285.5919 285.6,285.6 247.8,323.4" fill="rgba(231,229,224,0.45)" stroke="rgba(140,138,133,0.2)" stroke-width="0.5"/>
<polygon points="285.60675,172.1919 323.4,172.2 285.6135,209.9838" fill="rgba(231,229,224,0.45)" stroke="rgba(140,138,133,0.2)" stroke-width="0.5"/>
<polygon points="323.4,172.2 323.40675,209.9919 285.6135,209.9838" fill="rgba(231,229,224,0.45)" stroke="rgba(140,138,133,0.2)" stroke-width="0.5"/>
<polygon points="285.6135,209.9838 323.40675,209.9919 285.60675,247.7919" fill="rgba(231,229,224,0.45)" stroke="rgba(140,138,133,0.2)" stroke-width="0.5"/>
<polygon points="323.40675,209.9919 323.4,247.8 285.60675,247.7919" fill="rgba(231,229,224,0.45)" stroke="rgba(140,138,133,0.2)" stroke-width="0.5"/>
<polygon points="285.60675,247.7919 323.4,247.8 285.6,285.6" fill="rgba(231,229,224,0.45)" stroke="rgba(140,138,133,0.2)" stroke-width="0.5"/>
<polygon points="323.40675,209.9919 361.2,210 323.4,247.8" fill="rgba(231,229,224,0.45)" stroke="rgba(140,138,133,0.2)" stroke-width="0.5"/>
<polygon points="230.32595362648846,98.40332523782703 321.59187476217295,230.27315362648847 189.72204637351155,321.53907476217296" fill="rgba(231,229,224,0.45)" stroke="rgba(140,138,133,0.2)" stroke-width="0.5"/>
<polygon points="230.32595362648846,98.40332523782703 189.72204637351155,321.53907476217296 98.45612523782704,189.66924637351153" fill="rgba(231,229,224,0.45)" stroke="rgba(140,138,133,0.2)" stroke-width="0.5"/>
<polygon points="191.8880245445949,128.80116811366685 291.19163188633314,191.8088245445949 228.1839754554051,291.1124318863332" fill="rgba(231,229,224,0.45)" stroke="rgba(140,138,133,0.2)" stroke-width="0.5"/>
<polygon points="191.8880245445949,128.80116811366685 228.1839754554051,291.1124318863332 128.88036811366686,228.1047754554051" fill="rgba(231,229,224,0.45)" stroke="rgba(140,138,133,0.2)" stroke-width="0.5"/>
<polygon points="233.59852134282718,154.23843108270552 265.7522689172945,233.4962213428272 186.4944786571728,265.6499689172945" fill="rgba(231,229,224,0.45)" stroke="rgba(140,138,133,0.2)" stroke-width="0.5"/>
<polygon points="233.59852134282718,154.23843108270552 186.4944786571728,265.6499689172945 154.3407310827055,186.39217865717282" fill="rgba(231,229,224,0.45)" stroke="rgba(140,138,133,0.2)" stroke-width="0.5"/>
<polygon points="43.69499999999999,179.742 104.17875000000001,149.4975 149.5365,240.2202" fill="rgba(231,229,224,0.45)" stroke="rgba(140,138,133,0.2)" stroke-width="0.5"/>
<polygon points="43.69499999999999,179.742 149.5365,240.2202 89.055,262.902" fill="rgba(231,229,224,0.45)" stroke="rgba(140,138,133,0.2)" stroke-width="0.5"/>
<polygon points="376.33875,179.7375 315.86249999999995,149.493 270.50025,240.2157" fill="rgba(231,229,224,0.45)" stroke="rgba(140,138,133,0.2)" stroke-width="0.5"/>
<polygon points="376.33875,179.7375 270.50025,240.2157 330.97875,262.8975" fill="rgba(231,229,224,0.45)" stroke="rgba(140,138,133,0.2)" stroke-width="0.5"/>
<polygon points="210.0615,88.9662 243.309,149.466 176.781,149.466" fill="rgba(231,229,224,0.45)" stroke="rgba(140,138,133,0.2)" stroke-width="0.5"/>
</svg>